<?xml version="1.0" encoding="UTF-8"?>
<svg id="Omen" xmlns="http://www.w3.org/2000/svg" version="1.1" viewBox="0 0 1660.6 287.2">
  <!-- Generator: Adobe Illustrator 29.7.1, SVG Export Plug-In . SVG Version: 2.1.1 Build 8)  -->
  <defs>
    <style>
      .st0 {
        fill: #fff;
      }
    </style>
  </defs>
  <polygon class="st0" points="0 143.4 143.4 0 287.6 144.2 144.6 287.2 0 143.4"/>
  <path class="st0" d="M505.3,25c-65.9,0-119.4,53.4-119.4,119.4s53.4,119.4,119.4,119.4,119.4-53.4,119.4-119.4-53.4-119.4-119.4-119.4ZM506.1,228c-44.8,0-81-36.3-81-81s36.3-81,81-81,81,36.3,81,81-36.3,81-81,81Z"/>
  <polygon class="st0" points="744.2 37.9 744.2 257.2 785.3 257.2 785.3 96.9 853.3 124.9 922.4 96.9 922.4 257.2 961.7 257.2 961.7 37.9 853 81.4 744.2 37.9"/>
  <polygon class="st0" points="1113.7 40.9 1113.7 257.2 1312.1 257.2 1312.1 220.3 1150.6 220.3 1150.6 167.2 1274.5 167.2 1274.5 129.7 1151.2 129.7 1151.2 78.5 1312.1 78.5 1312.1 40.9 1113.7 40.9"/>
  <polygon class="st0" points="1459.2 40.9 1459.2 257.2 1499.2 257.2 1499.2 77.9 1620.7 77.9 1620.7 257.2 1660.6 257.2 1660.6 40.9 1459.2 40.9"/>
</svg>